Video
ID                             : 0
Format                         : MPEG-4 Visual
Format profile                 : Simple@L1
Format settings, BVOP          : No
Format settings, QPel          : No
Format settings, GMC           : No warppoints
Format settings, Matrix        : Default (H.263)
Codec ID                       : DX50
Codec ID/Hint                  : DivX 5
Duration                       : 7mn 32s
Bit rate                       : 6 173 Kbps
Width                          : 720 pixels
Height                         : 576 pixels
Display aspect ratio           : 5:4
Frame rate                     : 50.000 fps
Standard                       : PAL
Color space                    : YUV
Chroma subsampling             : 4:2:0
Bit depth                      : 8 bits
Scan type                      : Interlaced
Scan order                     : Top Field First
Compression mode               : Lossy
Bits/(Pixel*Frame)             : 0.298
Stream size                    : 333 MiB (96%)
Writing library                : Lavc52.0.0

Audio
ID                             : 1
Format                         : MPEG Audio
Format version                 : Version 1
Format profile                 : Layer 3
Mode                           : Joint stereo
Codec ID                       : 55
Codec ID/Hint                  : MP3
Duration                       : 7mn 32s
Bit rate mode                  : Constant
Bit rate                       : 224 Kbps
Channel(s)                     : 2 channels
Sampling rate                  : 44.1 KHz
Compression mode               : Lossy
Stream size                    : 12.1 MiB (3%)
Alignment                      : Aligned on interleaves
Interleave, duration           : 26 ms (1.31 video frame)
Interleave, preload duration   : 809 ms
Writing library                : LAME3.97

Duration                       : 7mn 32s